<!-- Generated by IcoMoon.io -->
<svg version="1.1" xmlns="http://www.w3.org/2000/svg" width="1451" height="1024" viewBox="0 0 1451 1024">
<title></title>
<g id="icomoon-ignore">
</g>
<path d="M21.333 369.781c0-35.346 28.654-64 64-64h1280c35.345 0 64 28.654 64 64s-28.655 63.998-64 63.998h-1280c-35.346 0-64-28.652-64-63.998z"></path>
<path d="M21.333 85.333c0-35.346 28.654-64 64-64h1280c35.345 0 64 28.654 64 64s-28.655 64-64 64h-1280c-35.346 0-64-28.654-64-64z"></path>
<path d="M21.333 654.221c0-35.349 28.654-64 64-64h1280c35.345 0 64 28.651 64 64 0 35.345-28.655 64-64 64h-1280c-35.346 0-64-28.655-64-64z"></path>
<path d="M21.333 938.667c0-35.345 28.654-64 64-64h1280c35.345 0 64 28.655 64 64s-28.655 64-64 64h-1280c-35.346 0-64-28.655-64-64z"></path>
</svg>
